<svg width="80" height="80" viewBox="0 0 80 80" fill="none" xmlns="http://www.w3.org/2000/svg">
<g clip-path="url(#clip0_111_2)">
<path d="M54.8825 19.3026C51.0209 19.3026 47.4958 21.497 45.7936 24.9669L44.0385 28.5447V24.4748C44.0385 21.7305 44.8821 19.0817 46.4614 16.8371C47.3829 15.524 47.9277 13.9296 47.9277 12.2073C47.9277 7.7331 44.3097 4.10507 39.8305 4.10507C35.3513 4.10507 31.6932 7.7331 31.6932 12.2073C31.6932 13.8769 32.228 15.4311 33.0967 16.7216C34.5705 18.911 35.3639 21.492 35.3639 24.1308V27.553L34.1738 25.0648C32.4916 21.5447 28.9364 19.3026 25.0322 19.3026H2.76684C1.77761 19.3026 0.863697 19.8299 0.36908 20.6861C-0.123027 21.5422 -0.123027 22.5967 0.37159 23.4529C1.76003 25.8607 3.73348 27.8768 6.10865 29.318L22.3331 39.1601C21.8912 38.3969 21.5347 37.6085 21.2886 36.8377C20.6986 34.9446 20.6082 33.3678 20.6635 32.3861C20.7564 27.8091 23.7266 25.7653 26.6792 26.0515C28.487 26.2298 30.0009 27.2793 30.8345 28.7456L32.5569 31.8087C32.577 31.7961 35.6024 34.219 40.0063 35.4191C44.8169 33.8901 47.4757 31.7961 47.4883 31.8087L49.1956 28.7732C50.6468 26.1846 53.9309 25.2632 56.527 26.7194C58.1063 27.6082 59.4144 29.6545 59.3918 32.3887C59.3491 33.9704 59.3516 34.9421 58.7691 36.8352C58.523 37.5834 58.1816 38.3492 57.7523 39.0999L73.8939 29.318C76.269 27.8794 78.24 25.8632 79.6334 23.4529C80.1255 22.5967 80.1255 21.5422 79.6334 20.6861C79.1388 19.8299 78.2224 19.3026 77.2357 19.3026H54.8825Z" fill="#014D5E"/>
<path d="M40.0289 53.6798C40.403 53.5719 42.7932 52.9166 43.5715 52.7107C42.8535 52.3617 40.4356 51.2695 40.0289 51.0912C39.6121 51.267 37.2018 52.3617 36.4812 52.7107C37.262 52.9166 39.6497 53.5719 40.0289 53.6798Z" fill="#014D5E"/>
<path d="M42.4543 66.4118C41.6609 66.3591 38.3868 66.3591 37.5985 66.4118C37.1892 66.4369 36.8051 66.4168 36.3431 66.4746C36.0217 66.5173 35.7807 66.5625 35.3589 66.6077V71.5739C35.3589 73.9616 37.3072 75.8974 39.7 75.8974C42.0877 75.8974 44.036 73.9616 44.036 71.5739V66.5323C44.036 66.5097 43.785 66.4897 43.6519 66.4771C43.1849 66.4194 42.861 66.4394 42.4543 66.4118Z" fill="#014D5E"/>
<path d="M26.7119 63.9739C26.3955 64.6267 26.1771 65.3021 26.0992 65.9649C25.8105 67.8831 26.3453 69.367 26.8675 70.3863C27.9974 72.4175 29.0669 73.0854 29.0669 73.0854C29.0669 73.0854 28.9891 72.7816 28.9289 72.2217C28.2384 65.7641 32.705 65.1263 32.9435 65.056C29.318 64.4534 27.5304 63.8258 26.9152 63.5747C26.8449 63.7077 26.7746 63.8383 26.7119 63.9739Z" fill="#014D5E"/>
<path d="M56.183 47.993C54.5762 45.3943 51.1364 43.2954 50.3907 42.8735C51.5331 42.1279 52.5977 41.2968 53.5191 40.3502C56.9413 36.8503 56.9965 33.1092 56.9689 32.3033C56.9162 31.5024 56.8911 31.073 56.8911 31.073C56.7404 29.1272 55.0381 27.6735 53.0898 27.8216C51.1465 27.9748 49.6902 29.677 49.8434 31.6229C49.8057 31.6103 49.8359 32.3209 49.3889 33.0816C49.1404 33.4582 48.7889 33.9554 48.0457 34.5404C47.3075 35.1178 46.2505 35.7957 44.8972 36.4536C43.5088 37.134 41.8642 37.7968 40.0238 38.5074C38.5551 37.9424 37.2193 37.4076 36.0368 36.8729C35.7254 36.7348 35.4317 36.5942 35.1455 36.4536C33.7871 35.7957 32.7301 35.1153 31.997 34.5404C31.2538 33.9554 30.8973 33.4582 30.6487 33.0816C30.2018 32.3209 30.2319 31.6128 30.1993 31.6229C30.355 29.677 28.8962 27.9773 26.9479 27.8216C25.0071 27.6735 23.3048 29.1272 23.1491 31.073C23.1491 31.073 23.1215 31.5024 23.0738 32.3033C23.0437 33.1092 23.134 34.3696 23.6287 35.8912C24.1383 37.4026 25.685 40.2222 29.6519 42.8735C34.2968 45.2161 39.9259 47.9151 40.0213 47.88C40.8147 48.2114 49.8635 51.8168 49.0877 53.5342C48.9847 53.8731 48.3771 54.0891 47.5335 54.3678C46.6623 54.6916 45.6379 54.9528 44.5507 55.2114C43.9431 55.3595 43.3154 55.5001 42.6827 55.6533C47.8674 57.3505 51.7842 59.442 53.3861 60.5216C53.4538 60.5643 53.5116 60.6045 53.5693 60.6497C53.9309 60.4187 54.2924 60.155 54.659 59.8512C56.5772 58.1941 59.5751 53.4815 56.183 47.993Z" fill="#014D5E"/>
<path d="M51.6059 61.5585C47.5938 58.7189 33.3327 54.669 32.5242 54.3753C31.6857 54.0941 31.1032 53.7049 30.9927 53.5367C30.837 53.0848 31.176 52.796 31.2538 52.7232C32.0849 51.8394 35.5949 49.8233 37.2369 49.0826C33.1896 47.2925 28.8485 45.427 27.1864 44.4654C26.049 45.3265 24.7133 46.3484 23.8672 48.003C22.4009 50.8803 22.4009 53.9585 22.4009 53.9585C22.4009 55.9771 23.7542 58.6109 25.3912 59.8588C25.8205 60.2178 26.2423 60.5166 26.6591 60.7752C27.8317 61.5008 28.9389 61.8824 29.9231 62.1837C32.6422 62.9771 34.9321 63.2633 37.1064 63.4994C39.1677 63.7504 41.1562 63.9915 43.0518 64.2225C43.682 64.2953 48.9044 64.8627 50.3706 67.0998C50.9079 67.9208 51.1791 68.9778 51.2394 69.9193C51.3122 70.8759 51.2092 71.6819 51.1264 72.2292C51.0611 72.7891 50.9808 73.0929 50.9808 73.0929C50.9808 73.0929 52.2035 72.5004 53.1852 70.3939C55.9169 64.4911 51.6386 61.5811 51.6059 61.5585Z" fill="#014D5E"/>
</g>
<defs>
<clipPath id="clip0_111_2">
<rect width="80" height="80" fill="white"/>
</clipPath>
</defs>
</svg>
